<svg xmlns="http://www.w3.org/2000/svg" xmlns:xlink="http://www.w3.org/1999/xlink" width="500" zoomAndPan="magnify" viewBox="0 0 375 374.999991" height="500" preserveAspectRatio="xMidYMid meet" version="1.0"><defs><clipPath id="f9d2762c78"><path d="M 8.542969 8.542969 L 366.292969 8.542969 L 366.292969 366.292969 L 8.542969 366.292969 Z M 8.542969 8.542969 " clip-rule="nonzero"/></clipPath><clipPath id="6819df1a26"><path d="M 42.316406 42.316406 L 332.683594 42.316406 L 332.683594 332.683594 L 42.316406 332.683594 Z M 42.316406 42.316406 " clip-rule="nonzero"/></clipPath><clipPath id="5d725a42e2"><path d="M 187.5 42.316406 C 107.316406 42.316406 42.316406 107.316406 42.316406 187.5 C 42.316406 267.683594 107.316406 332.683594 187.5 332.683594 C 267.683594 332.683594 332.683594 267.683594 332.683594 187.5 C 332.683594 107.316406 267.683594 42.316406 187.5 42.316406 " clip-rule="nonzero"/></clipPath><clipPath id="8f8d78ac93"><path d="M 104.761719 99.914062 L 267.511719 99.914062 L 267.511719 275.414062 L 104.761719 275.414062 Z M 104.761719 99.914062 " clip-rule="nonzero"/></clipPath></defs><path fill="#10c999" d="M 157.667969 227.710938 L 142.230469 227.710938 C 135.074219 227.710938 129.046875 221.6875 129.046875 214.53125 L 129.046875 187.042969 C 129.046875 179.886719 135.074219 173.863281 142.230469 173.863281 L 157.667969 173.863281 C 164.824219 173.863281 170.847656 179.886719 170.847656 187.042969 L 170.847656 214.53125 C 170.847656 221.6875 165.199219 227.710938 157.667969 227.710938 Z M 157.667969 227.710938 " fill-opacity="1" fill-rule="nonzero"/><path fill="#10c999" d="M 223.570312 227.710938 L 208.128906 227.710938 C 200.976562 227.710938 194.949219 221.6875 194.949219 214.53125 L 194.949219 187.042969 C 194.949219 179.886719 200.976562 173.863281 208.128906 173.863281 L 223.570312 173.863281 C 230.726562 173.863281 236.75 179.886719 236.75 187.042969 L 236.75 214.53125 C 236.75 221.6875 230.726562 227.710938 223.570312 227.710938 Z M 223.570312 227.710938 " fill-opacity="1" fill-rule="nonzero"/><g clip-path="url(#f9d2762c78)"><path fill="#10c999" d="M 187.417969 8.542969 C 88.753906 8.542969 8.542969 88.753906 8.542969 187.417969 C 8.542969 286.082031 88.753906 366.292969 187.417969 366.292969 L 338.050781 366.292969 C 353.867188 366.292969 366.292969 353.488281 366.292969 338.050781 L 366.292969 187.417969 C 366.292969 88.753906 286.082031 8.542969 187.417969 8.542969 Z M 312.820312 212.648438 C 312.820312 224.324219 303.40625 233.359375 292.105469 233.359375 L 282.691406 233.359375 C 281.941406 233.359375 280.808594 233.359375 280.058594 232.984375 C 264.992188 264.992188 229.21875 287.210938 187.417969 287.210938 C 145.617188 287.210938 109.84375 264.992188 95.15625 233.359375 L 85.742188 233.359375 C 74.066406 233.359375 65.03125 223.945312 65.03125 212.648438 L 65.03125 188.925781 C 65.03125 177.25 74.445312 168.214844 85.742188 168.214844 L 94.78125 168.214844 C 107.582031 141.097656 136.203125 120.765625 170.847656 115.867188 L 170.847656 93.273438 C 163.695312 89.132812 158.796875 81.601562 158.796875 72.5625 C 158.796875 59.382812 169.34375 48.835938 182.523438 48.835938 C 195.703125 48.835938 206.246094 59.382812 206.246094 72.5625 C 206.246094 81.222656 201.351562 89.132812 194.195312 93.273438 L 194.195312 114.738281 C 232.984375 117.375 265.371094 138.464844 279.304688 168.214844 C 280.058594 168.214844 281.1875 167.835938 281.941406 167.835938 L 291.355469 167.835938 C 303.027344 167.835938 312.066406 177.25 312.066406 188.546875 L 312.066406 212.648438 Z M 312.820312 212.648438 " fill-opacity="1" fill-rule="nonzero"/></g><g clip-path="url(#6819df1a26)"><g clip-path="url(#5d725a42e2)"><path fill="#0d3c53" d="M 42.316406 42.316406 L 332.683594 42.316406 L 332.683594 332.683594 L 42.316406 332.683594 Z M 42.316406 42.316406 " fill-opacity="1" fill-rule="nonzero"/></g></g><g clip-path="url(#8f8d78ac93)"><path fill="#0d3c53" d="M -44.929688 -42.628906 L 289.570312 -42.628906 L 289.570312 291.871094 L -44.929688 291.871094 Z M -44.929688 -42.628906 " fill-opacity="1" fill-rule="nonzero"/></g><path fill="#ffffff" d="M 242.6875 153.691406 L 130.429688 153.691406 C 118.910156 153.691406 109.578125 163.570312 109.578125 175.324219 L 109.578125 235.085938 L 262.792969 235.085938 L 262.792969 175.324219 C 262.792969 163.570312 254.207031 153.691406 242.683594 153.691406 Z M 152.050781 202.246094 C 144.472656 202.246094 138.332031 195.976562 138.332031 188.242188 C 138.332031 180.507812 144.472656 174.238281 152.050781 174.238281 C 159.632812 174.238281 165.773438 180.507812 165.773438 188.242188 C 165.773438 195.976562 159.632812 202.246094 152.050781 202.246094 Z M 222.230469 202.246094 C 214.652344 202.246094 208.507812 195.976562 208.507812 188.242188 C 208.507812 180.507812 214.652344 174.238281 222.230469 174.238281 C 229.808594 174.238281 235.949219 180.507812 235.949219 188.242188 C 235.949219 195.976562 229.808594 202.246094 222.230469 202.246094 Z M 222.230469 202.246094 " fill-opacity="1" fill-rule="nonzero"/><path fill="#ffffff" d="M 138.574219 240.585938 L 233.371094 240.585938 C 236.089844 240.585938 238.289062 242.832031 238.289062 245.605469 C 238.289062 248.375 236.089844 250.632812 233.371094 250.632812 L 138.574219 250.632812 C 135.855469 250.632812 133.652344 248.375 133.652344 245.605469 C 133.652344 242.832031 135.855469 240.585938 138.574219 240.585938 Z M 138.574219 240.585938 " fill-opacity="1" fill-rule="nonzero"/><path fill="#ffffff" d="M 154.605469 255.273438 L 218.191406 255.273438 C 220.910156 255.273438 223.113281 257.519531 223.113281 260.304688 C 223.113281 263.074219 220.910156 265.320312 218.191406 265.320312 L 154.605469 265.320312 C 151.886719 265.320312 149.683594 263.074219 149.683594 260.304688 C 149.683594 257.519531 151.886719 255.273438 154.605469 255.273438 Z M 154.605469 255.273438 " fill-opacity="1" fill-rule="nonzero"/><path fill="#ffffff" d="M 197.695312 116.039062 C 197.695312 110.390625 193.351562 105.808594 187.816406 105.808594 C 182.285156 105.808594 178.207031 110.390625 178.207031 116.039062 C 178.207031 119.554688 179.800781 122.652344 182.992188 124.492188 L 182.992188 141.902344 C 182.992188 144.882812 184.859375 147.300781 187.78125 147.300781 C 190.703125 147.300781 192.570312 144.882812 192.570312 141.902344 L 192.570312 124.785156 C 195.761719 122.988281 197.695312 119.75 197.695312 116.039062 Z M 197.695312 116.039062 " fill-opacity="1" fill-rule="nonzero"/></svg>